<svg version="1" xmlns="http://www.w3.org/2000/svg" width="682.667" height="682.667" viewBox="0 0 512.000000 512.000000"><path d="M105 177.1v10.7l29.5-.2 29.5-.1v158.2l12 .1h12V187.5l29.5.1 29.5.2V166.5H105v10.6zM271.5 167c-.2.3-.3 40.6-.3 89.6v89.1l11.9.1H295l.1-2.6c0-1.5.1-17.9 0-36.5V273h5.7c24.5-.2 57.3-.9 60.2-1.5 19.6-3.6 29.9-9.5 37.9-21.5 10.1-15.2 12.1-34.4 5.4-52.3-3.6-9.8-10.1-17.8-18.6-23-4.1-2.5-16.2-6.4-22.7-7.3-6.4-.8-91-1.2-91.5-.4zm85.4 21.4c10.2 1.2 15.8 4.3 21.1 12.1 3.5 5.1 5.8 14 5.3 20.9-1 16.9-12.2 27.4-31.2 29.3-3.6.4-17.8.7-31.6.7l-25 .1-.2-31.3c-.2-30-.2-31.3 1.7-32 2.4-.9 51.8-.7 59.9.2z"/></svg>